<svg width="16" height="18" viewBox="0 0 16 18" fill="none" xmlns="http://www.w3.org/2000/svg">
    <path
        d="M6.56175 1.48183C7.33851 0.645693 8.66201 0.645693 9.43877 1.48183C9.90137 1.9798 10.5886 2.20309 11.2556 2.07214C12.3754 1.85226 13.4462 2.6302 13.5831 3.76321C13.6647 4.43798 14.0894 5.02259 14.706 5.30867C15.7412 5.78902 16.1502 7.04775 15.595 8.04487C15.2644 8.63871 15.2644 9.36132 15.595 9.95516C16.1502 10.9523 15.7412 12.211 14.706 12.6914C14.0894 12.9774 13.6647 13.5621 13.5831 14.2368C13.4462 15.3698 12.3754 16.1478 11.2556 15.9279C10.5886 15.7969 9.90137 16.0202 9.43877 16.5182C8.66201 17.3543 7.33851 17.3543 6.56175 16.5182C6.09915 16.0202 5.41191 15.7969 4.74496 15.9279C3.62508 16.1478 2.55434 15.3698 2.4174 14.2368C2.33585 13.5621 1.91111 12.9774 1.29456 12.6914C0.259319 12.211 -0.149667 10.9523 0.405514 9.95516C0.736158 9.36132 0.736158 8.63871 0.405514 8.04487C-0.149667 7.04775 0.25932 5.78902 1.29456 5.30867C1.91111 5.02259 2.33585 4.43798 2.4174 3.76321C2.55434 2.6302 3.62508 1.85226 4.74496 2.07214C5.41191 2.20309 6.09915 1.97979 6.56175 1.48183Z"
        fill="#3B94ED" />
    <path
        d="M6.55391 6.02386L8.47277 10.7418L7.72308 10.5905L9.46344 6.02386H10.9985L7.99975 12.8782L5.00098 6.02386H6.55391Z"
        fill="white" />
</svg>